<?xml version="1.0" encoding="UTF-8" standalone="no"?>
<!-- Created with Inkscape (http://www.inkscape.org/) -->

<svg
   width="9.5in"
   height="4.125in"
   viewBox="0 0 241.3 104.775"
   version="1.1"
   id="svg5"
   inkscape:version="1.1.2 (0a00cf5339, 2022-02-04)"
   sodipodi:docname="handwriting.svg"
   xmlns:inkscape="http://www.inkscape.org/namespaces/inkscape"
   xmlns:sodipodi="http://sodipodi.sourceforge.net/DTD/sodipodi-0.dtd"
   xmlns="http://www.w3.org/2000/svg"
   xmlns:svg="http://www.w3.org/2000/svg">
  <sodipodi:namedview
     id="namedview7"
     pagecolor="#ffffff"
     bordercolor="#666666"
     borderopacity="1.0"
     inkscape:pageshadow="2"
     inkscape:pageopacity="0.0"
     inkscape:pagecheckerboard="0"
     inkscape:document-units="mm"
     showgrid="false"
     units="in"
     inkscape:zoom="2.5521642"
     inkscape:cx="30.954121"
     inkscape:cy="104.22527"
     inkscape:window-width="1920"
     inkscape:window-height="1012"
     inkscape:window-x="1080"
     inkscape:window-y="655"
     inkscape:window-maximized="1"
     inkscape:current-layer="layer1"
     showguides="false" />
  <defs
     id="defs2">
    <inkscape:path-effect
       effect="skeletal"
       id="path-effect283"
       is_visible="true"
       lpeversion="1"
       pattern="M 0,4.9921384 C 0,2.236478 2.236478,0 4.9921384,0 c 2.7556603,0 4.9921383,2.236478 4.9921383,4.9921384 0,2.7556603 -2.236478,4.9921383 -4.9921383,4.9921383 C 2.236478,9.9842767 0,7.7477987 0,4.9921384 Z"
       copytype="single_stretched"
       prop_scale="1"
       scale_y_rel="false"
       spacing="0"
       normal_offset="0"
       tang_offset="0"
       prop_units="false"
       vertical_pattern="false"
       hide_knot="false"
       fuse_tolerance="0" />
    <inkscape:path-effect
       effect="skeletal"
       id="path-effect279"
       is_visible="true"
       lpeversion="1"
       pattern="M 0,4.9921384 C 0,2.236478 2.236478,0 4.9921384,0 c 2.7556603,0 4.9921383,2.236478 4.9921383,4.9921384 0,2.7556603 -2.236478,4.9921383 -4.9921383,4.9921383 C 2.236478,9.9842767 0,7.7477987 0,4.9921384 Z"
       copytype="single_stretched"
       prop_scale="1"
       scale_y_rel="false"
       spacing="0"
       normal_offset="0"
       tang_offset="0"
       prop_units="false"
       vertical_pattern="false"
       hide_knot="false"
       fuse_tolerance="0" />
    <inkscape:path-effect
       effect="skeletal"
       id="path-effect120319"
       is_visible="true"
       lpeversion="1"
       pattern="M 0,4.9921384 C 0,2.236478 2.236478,0 4.9921384,0 c 2.7556603,0 4.9921383,2.236478 4.9921383,4.9921384 0,2.7556603 -2.236478,4.9921383 -4.9921383,4.9921383 C 2.236478,9.9842767 0,7.7477987 0,4.9921384 Z"
       copytype="single_stretched"
       prop_scale="1"
       scale_y_rel="false"
       spacing="0"
       normal_offset="0"
       tang_offset="0"
       prop_units="false"
       vertical_pattern="false"
       hide_knot="false"
       fuse_tolerance="0" />
    <rect
       x="124.60381"
       y="418.26422"
       width="28.842612"
       height="116.53656"
       id="rect60854" />
  </defs>
  <g
     inkscape:label="Layer 1"
     inkscape:groupmode="layer"
     id="layer1">
    <path
       style="color:#000000;fill:#000000;stroke-linecap:round;-inkscape-stroke:none"
       d="M 4.7753906,0.05273437 C 3.7844531,0.44171782 3.4537486,1.5824353 3.1621143,2.5093634 2.1704936,5.8297256 1.1135711,9.1301774 0.04296875,12.425781 -0.36083809,13.753242 1.7889233,13.958942 1.8240845,12.654963 2.9389142,9.2525457 3.9992957,5.8316068 5.0491049,2.4094084 5.3160405,2.2430362 5.3961798,3.3772892 5.5624781,3.7308204 6.4167016,6.8745698 7.2708563,10.018338 8.125,13.162109 8.4637246,14.437353 10.329406,13.598436 9.7817807,12.528643 8.7817315,8.883079 7.817085,5.227316 6.7952616,1.5880204 6.5629521,0.701695 5.8029184,-0.24951498 4.7753906,0.05273437 Z"
       id="path120391" />
    <path
       style="color:#000000;fill:#000000;stroke-linecap:round;-inkscape-stroke:none"
       d="M 2.5,7.4863281 C 1.3054936,7.2571618 1.3776094,9.0841441 2.4600184,9.0124803 4.3024543,9.3488681 6.2559628,9.463842 8.0639653,8.9003816 9.0400398,8.3157668 7.9681925,7.0749131 7.1006241,7.6142834 5.5819551,7.898719 4.0086818,7.7664379 2.5,7.4863281 Z"
       id="path122030" />
    <path
       style="color:#000000;fill:#000000;stroke-linecap:round;stroke-linejoin:round;-inkscape-stroke:none"
       d="M 6.6972656,0.08007812 C 5.9876581,-0.08387364 5.1999727,0.06299926 4.5351565,0.11718737 3.6716251,0.28853221 3.0280478,0.96096226 2.3007813,1.4121094 2.0691133,0.41147897 0.64104995,-0.52571048 0.05895993,0.79134676 0.01895965,1.8681395 1.0267049,2.6956593 1.1193693,3.8108781 c 0.339901,1.505269 0.1664645,3.0520314 0.1934625,4.5797513 -0.00923,1.3391912 -0.01845,2.6783826 -0.027676,4.0175736 0.03273,-0.462582 -0.061706,0.728194 0.1228267,0.888538 0.414868,1.185778 1.8088993,1.567776 2.9438093,1.524968 C 5.7747566,14.726748 7.24164,14.573129 8.5574617,13.985511 10.037968,13.34421 10.745932,11.670821 10.772531,10.140174 10.693228,8.5865165 9.4032031,7.3965728 8.0789465,6.7714732 7.9221829,6.5023381 8.7925126,6.0160564 8.9193971,5.5617423 9.8921824,4.0391061 9.7534527,1.6729931 8.1507114,0.62730587 7.7146845,0.33884785 7.2102601,0.16768117 6.6972656,0.08007812 Z M 4.1992187,1.9414062 C 4.36478,2.1495835 5.3321138,2.0455072 4.5947033,2.0828792 4.4522559,2.0714864 4.3255245,2.0012107 4.1992187,1.9414062 Z M 6.3574219,2.0507813 C 7.0843463,2.0914894 7.6398248,2.7328356 7.532066,3.4635807 7.5621191,4.6469351 6.5014054,5.4770529 5.4960937,5.8671875 4.2551142,6.3364839 4.9348954,7.831581 5.9786538,7.9455067 6.9948769,8.3842794 8.1062018,8.8847425 8.6980626,9.8705164 8.8727241,10.499608 8.6502312,11.243654 8.2745721,11.766494 7.5315351,12.4704 6.4295279,12.525696 5.4733258,12.711425 4.7518757,12.782266 3.928226,12.996841 3.2662732,12.607135 3.3088926,12.00884 3.2830683,11.294296 3.2973646,10.648244 3.3011319,8.86425 3.3382515,7.0798489 3.3232096,5.2960838 3.3511708,4.6283656 3.0914314,3.8603011 3.1065734,3.275416 3.7097927,2.8703792 4.280248,2.3777532 4.933594,2.0722694 c 0.4695777,-0.0751 0.952903,-0.09831 1.4238279,-0.021488 z"
       id="path122618" />
    <path
       style="color:#000000;fill:#000000;stroke-linecap:round;stroke-linejoin:round;-inkscape-stroke:none"
       d="M 5.0449219,0.12890625 C 2.6478584,0.6911233 0.74536724,2.7804545 0.17126954,5.1426261 -0.42761783,7.6645674 0.59877112,10.327485 2.2786709,12.209258 3.6725756,13.586756 5.7764928,14.513387 7.7291856,13.882254 9.3658691,13.350455 10.535074,11.922673 11.293616,10.438505 11.762016,9.2027233 9.6983943,8.5489198 9.3365972,9.8700578 8.697869,10.961181 7.6901852,12.148255 6.3046444,12.089871 5.2066978,12.000197 4.2051036,11.351852 3.4853203,10.547684 2.3691466,9.0690662 1.5609797,7.0856349 2.1794063,5.2409529 2.6547672,3.9620478 3.6327343,2.8625229 4.834929,2.2229059 6.248202,1.5317998 7.8788207,2.2343063 9.0006235,3.1635568 9.5904458,4.1239233 11.302819,3.7567085 11.024345,2.5391686 10.777672,1.8508685 10.067495,1.479694 9.5144323,1.0585299 8.2148789,0.18169815 6.5907791,-0.23478157 5.0449219,0.12890625 Z"
       id="path123594" />
    <path
       style="color:#000000;fill:#000000;stroke-linecap:round;stroke-linejoin:round;-inkscape-stroke:none"
       d="M 5.4550781,0.02734375 C 4.2451163,-0.11979341 3.0625432,0.23802082 1.9433594,0.65625 0.9959432,-0.19099361 0.08328328,0.99018148 0.24370625,1.9406611 0.21535895,2.2649024 0.22919701,2.5251783 0.22277324,2.8538308 0.14851549,6.1030748 0.07425775,9.3523189 0,12.601563 c 0.13279049,1.296995 1.6148098,1.046227 2.5516698,1.204973 1.5822927,0.122178 3.3444938,0.293321 4.712423,-0.685883 C 8.8259806,12.07261 9.6525653,10.288324 10.285463,8.5823357 10.853643,6.8796937 10.392361,5.031283 9.7371998,3.4238751 9.0464595,1.6403654 7.4049985,0.1844615 5.4550781,0.02734375 Z M 4.3886719,2.078125 C 5.345549,1.9251599 6.3972727,2.1480928 7.0555553,2.9027676 7.965798,3.8491622 8.2704544,5.1917394 8.5014141,6.4421657 8.6996638,7.6820927 8.0565778,8.8521965 7.4935864,9.9103183 7.004586,10.643324 6.421631,11.438262 5.5602016,11.742641 4.3903656,11.924533 3.1913678,11.896141 2.0214844,11.726563 2.0904948,8.7076826 2.1595052,5.6888023 2.2285156,2.6699219 2.9358238,2.4286483 3.6371352,2.1459072 4.3886719,2.078125 Z"
       id="path123827" />
    <path
       style="color:#000000;fill:#000000;stroke-linecap:round;stroke-linejoin:round;-inkscape-stroke:none"
       d="M 0.99414063,0 C 0.07142019,-0.00710493 -0.05509772,0.9468157 0.00428294,1.6392949 0.02824591,5.1833579 0.05220889,8.727421 0.07617187,12.271484 0.07833105,13.759964 2.3267947,13.394273 2.0750296,12.088897 2.0500197,8.3906448 2.0250099,4.6923927 2,0.99414063 2.0116223,0.45975582 1.5283526,-0.01788357 0.99414063,0 Z"
       id="path124996" />
    <path
       style="color:#000000;fill:#000000;stroke-linecap:round;stroke-linejoin:round;-inkscape-stroke:none"
       d="M 1.0058594,0 C -0.62580824,0.09108037 0.03766106,2.318845 1.3742025,2.0024918 3.3328016,2.0153331 5.2914008,2.0281743 7.25,2.0410156 8.7735328,2.0468247 8.3791004,-0.23445209 7.0525264,0.03963171 5.0369708,0.02642114 3.0214151,0.01321057 1.0058594,0 Z"
       id="path124998" />
    <path
       style="color:#000000;fill:#000000;stroke-linecap:round;stroke-linejoin:round;-inkscape-stroke:none"
       d="m 3.5703125,5.4707031 c -1.634525,0.065728 -1.0033084,2.3061162 0.3389766,2.0076907 1.2887005,0.026082 2.577401,0.052164 3.8661015,0.078246 C 9.2959946,7.581517 8.9332355,5.3002368 7.6053014,5.554224 6.2603051,5.5263837 4.9153088,5.4985434 3.5703125,5.4707031 Z"
       id="path125000" />
    <path
       style="color:#000000;fill:#000000;stroke-linecap:round;stroke-linejoin:round;-inkscape-stroke:none"
       d="m 1.0996094,11.265625 c -1.63195033,0.06116 -1.00991784,2.298892 0.3311254,2.007453 2.1350676,0.05285 4.2701351,0.105709 6.4052027,0.158563 1.5235785,0.03287 1.1695346,-2.255982 -0.1622587,-2.005165 -2.1913565,-0.05362 -4.3827129,-0.107234 -6.5740694,-0.160851 z"
       id="path125002" />
    <path
       style="color:#000000;fill:#000000;stroke-linecap:round;-inkscape-stroke:none"
       d="M 1.8828125,0 C 1.2044915,-0.07127214 0.21125116,0.04140224 0.15820912,0.9050832 0.03087467,1.1525256 0.41701209,1.8805848 0.1484375,1.2890626 0.22424303,4.6779915 0.08870994,8.0683844 0.0265058,11.456965 -0.16242597,12.398308 0.20406777,13.985076 1.4775259,13.406492 2.3156795,12.718805 1.9250446,11.533876 2.0487763,10.57717 2.1067061,7.7204855 2.1910631,4.8633486 2.1679711,2.0058594 3.5906364,2.0247708 5.0122538,2.0873732 6.433596,2.1484373 7.8905798,2.2385313 7.6979063,-0.01213804 6.3881305,0.14608497 4.8869948,0.0819699 3.3853845,0.0159603 1.8828125,0 Z M 1.7617187,0.28320313 c 0.1784778,0.17144355 0.1327799,0.15004721 0,0 z m 0.1835938,0.20703125 c 0.015253,0.001943 0.026338,0.0705474 0,0 z M 0.296875,1.6171875 c 0.0930088,0.09961 0.005744,0.025214 0,0 z"
       id="path287" />
    <path
       style="color:#000000;fill:#000000;stroke-linecap:round;-inkscape-stroke:none"
       d="M 3.6796875,6.2578125 C 2.2957521,6.1247216 2.3301344,8.4138819 3.7038396,8.2622715 4.9708391,8.3038549 6.2532693,8.4459708 7.5137535,8.2817671 8.8699505,8.036574 8.2872535,5.7408685 6.9023437,6.3769531 7.2036229,6.2770159 6.2185038,6.401309 5.9982235,6.3517267 5.2247935,6.338523 4.4518972,6.3021032 3.6796875,6.2578125 Z"
       id="path289" />
    <path
       style="color:#000000;fill:#000000;stroke-linecap:round;-inkscape-stroke:none"
       d="M 5.8808594,0.00195313 C 3.9715081,0.00983472 1.9915941,0.96349945 1.1087308,2.7157247 -0.21618455,4.8968783 -0.38821639,7.7627898 0.81647458,10.034576 1.3754263,11.113884 2.1301582,12.229142 3.3596522,12.595878 5.1109146,13.184232 7.0023264,12.791117 8.735795,12.33012 9.4751495,12.021664 10.546771,11.997563 10.892815,11.155193 11.219333,9.9404108 9.6962177,9.6395138 8.8715723,10.184624 7.4174111,10.632843 5.8688628,11.066557 4.3380118,10.807242 3.7442768,10.70243 3.2481976,10.316395 2.986566,9.7780712 2.1591094,8.4812338 1.7421515,6.8682342 2.1688112,5.356554 2.4749461,4.2421625 2.9818226,3.041501 4.0479024,2.46121 5.2749003,1.8339361 6.8493613,1.8220586 8.0563138,2.5042936 8.921605,2.9287237 9.2302525,4.5880099 10.443077,3.8045927 11.322847,3.1222502 10.534006,2.0783777 9.9158726,1.5514878 8.8516795,0.51387564 7.3647544,-0.04819348 5.8808594,0.00195313 Z"
       id="path291" />
    <path
       style="color:#000000;fill:#000000;stroke-linecap:round;-inkscape-stroke:none"
       d="M 10.207031,5.5214844 C 8.9260452,5.2869803 8.6456118,7.3954264 9.9433594,7.5039062 9.5124126,7.5200494 9.0880293,6.8778329 9.0939982,6.7190604 9.0708242,9.0779704 8.934612,11.434374 8.8359431,13.791016 8.7304537,15.209169 11.041332,15.084802 10.842447,13.705628 10.931622,11.29259 11.101234,8.8788827 11.082653,6.4638727 11.059209,5.969691 10.671259,5.6208491 10.207031,5.5214844 Z"
       id="path293" />
    <path
       style="color:#000000;fill:#000000;stroke-linecap:round;-inkscape-stroke:none"
       d="M 12.271484,5.5625 C 10.364583,5.5878906 8.4576821,5.6132813 6.5507812,5.6386719 4.9510008,5.7362999 5.5969101,7.9559721 6.913982,7.6341755 8.7664678,7.5995637 10.621235,7.6048749 12.472274,7.5449476 13.612142,7.3686154 13.51394,5.5278763 12.271484,5.5625 Z"
       id="path295" />
    <path
       style="color:#000000;fill:#000000;stroke-linecap:round;-inkscape-stroke:none"
       d="M 1.1035156,1.6933594 C -0.06691536,1.5852961 -0.26819133,3.0819573 0.50565829,3.7021514 1.1590264,4.6858688 1.5204401,5.8714703 1.4333201,7.0543122 1.4203904,9.5362081 1.4074608,12.018104 1.3945312,14.5 c 0.09053,1.631664 2.3198309,0.968204 2.0019587,-0.368346 0.0068,-2.696044 0.041985,-5.3931135 0.031041,-8.0885161 C 3.2598053,4.5982382 2.6920897,3.1928414 1.7773437,2.0585938 L 1.4768099,1.8088579 Z"
       id="path366" />
    <path
       style="color:#000000;fill:#000000;stroke-linecap:round;-inkscape-stroke:none"
       d="M 8.2246094,0.05273437 C 7.063457,-0.30987967 6.6267733,1.1252448 7.2113057,1.9059042 c 0.8334248,2.3974564 1.0020314,4.9705973 1.0048854,7.4917171 -0.021282,1.7925897 -0.042565,3.5851797 -0.063847,5.3777697 0.081131,1.632252 2.3138949,0.98186 2.0043799,-0.356608 0.0094,-2.167314 0.08531,-4.335057 0.04083,-6.5020479 C 10.058903,5.427998 9.8785751,2.8456541 8.8007813,0.55664062 L 8.562817,0.24737786 Z"
       id="path370" />
    <path
       style="color:#000000;fill:#000000;stroke-linecap:round;-inkscape-stroke:none"
       d="M 9.15625,7.734375 C 6.9173177,7.8157552 4.6783854,7.8971354 2.4394531,7.9785156 0.81236169,8.1390827 1.5714349,10.336453 2.8934909,9.9627529 5.0051658,9.8859759 7.1168407,9.8091989 9.2285156,9.7324219 10.481626,9.7203151 10.522279,7.6861962 9.15625,7.734375 Z"
       id="path372" />
    <path
       style="color:#000000;fill:#000000;stroke-linecap:round;-inkscape-stroke:none"
       d="M 5.6777344,0.265625 C 4.5421334,-0.7352384 3.3278629,1.2047413 4.5106157,1.9474131 5.186513,2.7334925 5.6843262,3.7388003 5.5551932,4.8013414 5.495675,8.0215715 5.3471599,11.239358 5.2109375,14.457031 5.1166528,15.901168 7.4485838,15.723956 7.218604,14.33509 7.3505221,10.900623 7.5529682,7.4660735 7.5507108,4.0284366 7.4786268,2.5865389 6.7199391,1.23573 5.6777344,0.265625 Z"
       id="path374" />
    <path
       style="color:#000000;fill:#000000;stroke-linecap:round;-inkscape-stroke:none"
       d="M 5.7207031,0.00976563 C 4.3462173,0.41025912 5.0739583,1.9315923 5.0869282,2.9440078 5.383747,5.8285013 5.7091247,8.7350587 5.513344,11.637179 c -0.061695,0.605917 -0.096153,1.398105 -0.8058978,1.582924 -0.8816411,0.216539 -1.9332309,-0.0072 -2.55991,-0.693197 -0.1361273,-0.684428 -0.5308508,-1.708709 -1.50344011,-1.312795 -1.06311543,0.56905 -0.64766366,2.006949 0.0494138,2.689243 C 1.810297,15.121191 3.6482487,15.562388 5.223042,15.135211 6.3133726,14.83329 7.2495388,13.911288 7.3739654,12.757964 7.7553866,10.44014 7.5280818,8.0759814 7.3719203,5.7475114 7.2361305,4.1162342 7.0613608,2.4881427 6.8476562,0.86523438 6.7899998,0.33351327 6.2483483,-0.07765377 5.7207031,0.00976563 Z"
       id="path376" />
    <path
       style="color:#000000;fill:#000000;stroke-linecap:round;-inkscape-stroke:none"
       d="M 1.1445312,0.41210938 C -0.28524909,0.64746285 0.27568174,2.2673059 0.18122035,3.2803187 c 0.015023,3.1865088 0.0767636,6.37867 -0.13578556,9.5600343 -0.5134258,1.34345 1.79934761,1.940356 1.94583601,0.487526 C 2.2511268,10.662084 2.1823243,7.9770438 2.1967194,5.3018738 2.1907569,4.0006719 2.176888,2.6995156 2.1582026,1.3984375 2.1656951,0.86392304 1.6786411,0.39000705 1.1445312,0.41210938 Z"
       id="path378" />
    <path
       style="color:#000000;fill:#000000;stroke-linecap:round;-inkscape-stroke:none"
       d="M 6.9375,0.05078125 C 5.6167409,0.65084605 6.8128051,2.0154048 6.442233,3.0351655 5.7908,4.3109457 4.8029033,5.5231075 3.4558505,6.0977679 2.5740268,6.5298842 1.3918165,5.9988656 0.67238015,6.7967812 0.11734427,7.4080914 0.5546187,8.3627013 1.2821583,8.5909829 c 1.0833611,0.5104129 2.3501958,0.7111014 3.2235924,1.5885601 1.1180552,0.855102 2.4283665,1.595503 3.1012207,2.88557 0.010432,1.447446 2.2453775,1.19699 2.023888,-0.121754 C 9.4177567,11.321505 7.9900971,10.302801 6.7969498,9.3673326 6.1437309,8.9044183 5.5275064,8.3838334 4.8611923,7.9459557 3.8565006,7.6962301 5.3555713,7.4094863 5.6549001,7.037671 6.8120225,6.2522 7.6637271,5.0779355 8.282749,3.841265 8.6255263,2.8204786 8.5325976,1.6964311 8.2011719,0.68554687 8.0471297,0.17376629 7.4400276,-0.13119223 6.9375,0.05078125 Z"
       id="path380" />
    <path
       style="color:#000000;fill:#000000;stroke-linecap:round;-inkscape-stroke:none"
       d="M 1.1015625,0.00585938 C -0.12279605,-0.17110278 0.01347809,1.5068648 0.15605335,1.6277085 0.35773223,3.8967986 0.19521965,6.1801474 0.20464923,8.4548279 0.22855329,10.0555 0.11221082,11.688278 0.47692522,13.259394 0.63588725,14.074762 1.5107283,14.401888 2.2555643,14.405656 4.2873572,14.512161 6.3191803,14.29159 8.3398438,14.099607 9.7531603,13.978127 9.273879,11.672208 7.8759773,12.137152 6.0364078,12.299869 4.1861097,12.515918 2.3378906,12.400391 2.0861804,10.157285 2.2438111,7.8929573 2.2411971,5.6411454 2.2252542,4.0589413 2.355085,2.4524912 2.0449804,0.89107777 1.9381386,0.4526707 1.5735922,0.04577053 1.1015625,0.00585938 Z"
       id="path382" />
    <path
       style="color:#000000;fill:#000000;stroke-linecap:round;-inkscape-stroke:none"
       d="M 10.845703,-0.01953125 C 9.9531357,0.05477133 9.7044975,1.062938 9.3752328,1.7356299 8.3079185,4.3073952 7.4052268,6.9431535 6.4101562,9.5429688 5.4142587,6.8475197 4.5921374,4.0912676 3.7265629,1.3535165 3.405325,0.64446453 2.2659062,0.6697373 1.9848388,1.4019492 1.5155585,3.0367203 1.3033123,4.7367423 0.9850736,6.4062894 0.64866386,8.3580439 0.32779583,10.31244 0.01171875,12.267578 -0.15341793,13.829241 2.0856056,13.529311 1.945086,12.19753 2.300845,9.9948408 2.6723883,7.7945766 3.0839844,5.6015625 3.7653108,7.7309615 4.4093987,9.883559 5.3222656,11.927734 5.5471039,12.786001 6.822096,13.114118 7.2949219,12.29297 8.0685474,10.753479 8.5758715,9.0947496 9.2010952,7.4915264 9.6193618,6.348031 10.051737,5.2097789 10.496094,4.0761719 c 0.352189,2.7191071 0.603568,5.449864 0.855469,8.1796871 0.09584,1.364717 2.188603,0.92324 1.879576,-0.290884 C 12.890286,8.4600103 12.6064,4.9440992 12.048827,1.4652434 11.962082,0.7853098 11.684542,-0.05484382 10.845703,-0.01953125 Z"
       id="path384" />
    <path
       style="color:#000000;fill:#000000;stroke-linecap:round;-inkscape-stroke:none"
       d="M 8.8691406,0 C 7.4405337,0.19479936 7.9387231,1.8192898 7.8205323,2.8327039 7.7721542,5.3256543 7.720772,7.8186851 7.6308594,10.310547 5.7347719,7.2059933 4.0237696,3.9923318 2.1542969,0.87304688 1.7288479,0.18691979 0.55747842,0.30403782 0.31074219,1.0884473 -6.5547797e-4,2.1473643 0.08166451,3.280226 0.02251606,4.3744253 -0.0276792,7.4155303 0.01325715,10.457325 0.0703125,13.498047 c 0.15779644,1.696978 2.4382466,0.891569 1.989763,-0.466788 -0.043435,-2.794563 -0.097642,-5.5903021 -0.021012,-8.3847746 1.697773,2.9412318 3.3139991,5.9349716 5.1711895,8.7802446 0.3195543,0.652477 1.1917737,1.218253 1.8473807,0.660497 C 9.6681285,13.586142 9.468632,12.717668 9.5664352,12.026251 9.7284768,8.3581606 9.7847391,4.6863754 9.8535169,1.015624 9.8742407,0.47948968 9.4056607,-0.00396484 8.8691406,0 Z"
       id="path386" />
    <path
       style="color:#000000;fill:#000000;stroke-linecap:round;-inkscape-stroke:none"
       d="M 5.3828125,0.01757813 C 4.8199301,-0.0508841 4.2402607,0.00378935 3.7635599,0.33717874 1.7850527,1.3671871 0.14705773,3.315201 0.01623896,5.6070865 -0.1854795,7.7844253 0.95939949,10.005115 2.8618018,11.089717 c 0.6954348,0.42162 1.474928,0.768828 2.3085644,0.692842 C 6.7613663,11.800253 8.3638955,11.00621 9.1668016,9.6075777 10.217807,7.8260516 10.240658,5.5919014 9.6964441,3.6418894 9.2233892,1.9652525 7.8979935,0.47693854 6.1429759,0.13395785 5.8928457,0.07684211 5.6385406,0.03815551 5.3828125,0.01757813 Z M 4.890625,2.0273438 C 6.2087648,1.8973909 7.5095609,2.841091 7.7982995,4.1355362 8.1208645,5.4392982 8.1641449,6.8563725 7.7520624,8.1444315 7.3291304,9.4228414 5.7832821,9.9907579 4.5508381,9.7020123 3.1712001,9.1825011 2.0369344,7.8846405 2.009267,6.3653141 1.8491352,4.7286867 2.831911,3.1616011 4.2284789,2.3659546 4.4409606,2.2380013 4.6611588,2.1219075 4.890625,2.0273438 Z"
       id="path388" />
    <path
       style="color:#000000;fill:#000000;stroke-linecap:round;-inkscape-stroke:none"
       d="M 0.640625,0.06640625 C -0.59248894,0.79861439 0.50572337,2.1841161 0.52246274,3.2650986 1.1619306,6.97614 1.2590842,10.755814 1.2421875,14.513672 1.2114227,15.99441 3.5459648,15.686009 3.2439838,14.294311 3.2453967,10.226814 3.1439395,6.1244645 2.3315382,2.126077 2.0908628,1.2521052 2.0069167,-0.33352875 0.640625,0.06640625 Z"
       id="path390" />
    <path
       style="color:#000000;fill:#000000;stroke-linecap:round;-inkscape-stroke:none"
       d="M 5.5292969,0.55859375 C 3.7024215,0.54682565 1.9611289,1.5170809 0.83007813,2.9199219 -0.04838439,4.0478799 1.9202676,5.2163518 2.5530507,3.9784905 3.603335,2.8079797 5.4474822,2.080232 6.9071752,2.9246075 8.2542056,3.7265198 8.7718774,5.6598317 7.9063392,6.9955961 7.5406764,7.6716064 6.8945064,8.2642179 6.0779602,8.2227925 4.8383731,8.2264949 3.6632556,7.7058448 2.609375,7.0957031 1.3649096,6.28634 0.43289479,8.4261742 1.7278077,8.9004669 3.3842342,9.825097 5.365252,10.584422 7.2687841,10.036178 9.1159794,9.4590689 10.232887,7.4708117 10.25425,5.605995 10.286334,4.2367447 9.8072199,2.8385652 8.7752006,1.9055166 7.9206558,1.0542665 6.7408748,0.54475333 5.5292969,0.55859375 Z"
       id="path459" />
    <path
       style="color:#000000;fill:#000000;stroke-linecap:round;-inkscape-stroke:none"
       d="M 4.9921875,0.078125 C 3.6403518,0.28746283 2.547785,1.2432378 1.655009,2.2175366 -0.46246234,4.5907239 -0.61813027,8.5768466 1.5643697,10.959125 2.6947059,12.19744 4.417296,12.879656 6.0899436,12.631806 7.84611,12.472146 9.3484177,11.15104 9.877347,9.4927803 10.485824,7.6596739 10.45921,5.6549967 10.087025,3.776397 9.7725752,2.2040355 8.7531147,0.65338801 7.1503906,0.18554687 6.4537182,-0.02719135 5.7070313,-0.04810756 4.9921875,0.078125 Z m 1.578125,2.0214844 C 7.6991089,2.4367903 8.0729888,3.7195113 8.2366705,4.7597239 8.4174499,6.3174113 8.4649394,8.0127692 7.7109375,9.4375 7.1574633,10.531627 5.7884366,10.838802 4.6741905,10.591381 3.1892193,10.229509 2.1034854,8.7857222 2.0251243,7.2774123 1.8069294,5.4664542 2.6144953,3.554842 4.1632481,2.5581226 4.8429528,2.0560913 5.7547905,1.8896725 6.5703125,2.0996094 Z"
       id="path498" />
    <path
       style="color:#000000;fill:#000000;stroke-linecap:round;-inkscape-stroke:none"
       d="m 5.4765625,6.6835937 c -1.3683297,0.5722134 -0.400021,1.9289828 0.026312,2.7987399 0.7373865,1.3230074 1.5737728,2.7623834 3.0058042,3.4214254 0.8795074,0.338867 1.8384208,0.0753 2.7329608,-0.06893 0.892525,-0.03598 1.546837,-1.205775 0.788442,-1.856998 -0.519896,-0.642335 -1.688157,0.111826 -1.613961,0.437622 C 10.386802,11.082002 11.257716,10.71457 10.562263,10.9322 9.8369274,11.096428 8.9898444,11.202833 8.5406636,10.45912 7.7384074,9.5241822 7.1651248,8.4168384 6.6718747,7.2949216 l 0.03125,0.09375 C 6.578256,6.8686636 5.9887611,6.5297979 5.4765625,6.6835937 Z"
       id="path500" />
    <path
       style="color:#000000;fill:#000000;stroke-linecap:round;-inkscape-stroke:none"
       d="M 1.4570312,0.11132812 C 0.13310906,-0.60035973 -0.44147745,1.6156453 0.53857478,1.9061696 1.0238763,2.4776538 1.5573259,3.1041384 1.7084741,3.8535484 c 0.368172,2.0939337 0.1625597,4.2326277 0.076328,6.3421096 -0.085481,1.402204 -0.1968926,2.802877 -0.3355834,4.200826 -0.1927548,1.374931 2.0564918,1.454632 2.0014499,0.09393 C 3.7590204,11.024114 4.0652418,7.5345369 3.8219882,4.0545379 3.738013,2.7895241 2.9583496,1.7188943 2.2022384,0.75703451 1.9852314,0.50926969 1.7471364,0.27258902 1.4570312,0.11132812 Z"
       id="path502" />
    <path
       style="color:#000000;fill:#000000;stroke-linecap:round;-inkscape-stroke:none"
       d="M 5.6953125,0.38085938 C 4.1576847,0.39987671 2.6786208,1.1740346 1.6933594,2.3378906 0.7903671,3.5163889 2.7939802,4.6201555 3.4392259,3.3876563 4.3828166,2.4171699 5.9827588,2.0257407 7.1726381,2.7825576 8.1946283,3.3683256 9.1213114,4.4538823 9.0039397,5.699383 8.745802,6.6823594 7.8101485,7.3496099 6.8968326,7.6851319 5.7519396,8.0598956 4.4794026,7.8302894 3.4296875,7.2832031 2.1868125,6.5393328 1.3033704,8.6913392 2.6141212,9.1087858 4.6149103,10.07813 7.1842573,10.188894 9.0294926,8.8141678 10.514454,7.8180177 11.395696,5.8575363 10.790288,4.1162714 10.059089,2.0258594 7.9588167,0.33487024 5.6953125,0.38085938 Z"
       id="path504" />
    <path
       style="color:#000000;fill:#000000;stroke-linecap:round;-inkscape-stroke:none"
       d="M 7.2460937,8.1894531 C 6.0662272,7.1868309 4.8837459,9.2514445 6.1627922,9.9198448 7.3060424,11.103481 8.4008403,12.525711 8.5837535,14.21257 8.4748793,15.748361 10.871703,15.470718 10.581435,14.097488 10.417288,11.754742 8.8777143,9.7617882 7.2460937,8.1894531 Z"
       id="path573" />
    <path
       style="color:#000000;fill:#000000;stroke-linecap:round;-inkscape-stroke:none"
       d="M 4.2089844,0.00195313 C 2.4095348,0.00698595 0.66114489,1.2439741 0.20796483,3.0128371 -0.29380892,4.6329474 0.29375311,6.6274069 1.8482506,7.4468077 3.1563631,8.2292039 4.5265601,8.9046763 5.8508125,9.6543511 6.4215345,10.033196 6.95353,10.713207 6.6603348,11.432303 6.4695991,12.352193 5.5614282,12.866939 4.6833112,12.926443 3.6978337,13.003946 2.6969679,12.751029 1.8237271,12.299199 0.96987648,11.083995 -0.76084393,12.772399 0.36821073,13.698067 1.16702,14.589489 2.4535486,14.678897 3.5582192,14.891927 5.3958585,15.18531 7.5116878,14.404741 8.3328624,12.646768 9.1305167,11.133561 8.5786072,9.154804 7.2092347,8.1726356 6.5695453,7.6827612 6.1894141,7.5753509 5.5258117,7.200966 4.5147674,6.6383755 3.4673977,6.1262155 2.5074736,5.4798387 1.8275992,4.8193657 1.9309866,3.6419413 2.4396955,2.9047159 3.0588028,1.9393035 4.4069762,1.8356894 5.4083165,2.1557885 6.3441437,2.4637993 6.0859386,4.162297 7.3721385,3.7683499 8.4748193,3.4108494 8.064706,2.0375957 7.5247732,1.3655643 6.7693922,0.34878347 5.4297347,-0.04287638 4.2089844,0.00195313 Z"
       id="path575" />
    <path
       style="color:#000000;fill:#000000;stroke-linecap:round;-inkscape-stroke:none"
       d="M 6.3144531,0.61328125 C 5.5299231,0.29377001 4.668053,1.2439172 5.0917969,1.9980469 4.8993714,1.2828981 5.0613169,2.608896 5.020494,2.8806376 5.0554627,6.5257725 5.0507258,10.171145 5.0507849,13.816406 5.0244465,15.272895 7.2772754,14.984553 7.050875,13.674888 7.0372164,9.5972537 7.0832338,5.5177478 6.98438,1.4414065 6.9362222,1.0727831 6.6772107,0.72941288 6.3144531,0.61328125 Z"
       id="path577" />
    <path
       style="color:#000000;fill:#000000;stroke-linecap:round;-inkscape-stroke:none"
       d="M 10.265625,0.1015625 C 8.716455,0.65509962 7.0350754,0.59118054 5.412768,0.59658749 3.9743554,0.56901787 2.5371675,0.48062844 1.1054687,0.33984375 -0.30996008,0.15384263 -0.30790159,2.4748294 1.0829043,2.3469517 3.9256575,2.57977 6.8098162,2.785262 9.644323,2.3584033 10.305851,2.2074686 11.072777,2.1012093 11.534924,1.5583707 12.108358,0.78229918 11.168694,-0.38198618 10.265625,0.1015625 Z"
       id="path579" />
    <path
       style="color:#000000;fill:#000000;stroke-linecap:round;-inkscape-stroke:none"
       d="M 2.3945313,0.046875 C 0.97357055,-0.18935265 0.96843137,1.4920767 0.66726574,2.4492408 0.11020995,4.9856979 -0.30224229,7.6552134 0.27900149,10.224578 c 0.36416874,1.736586 1.65980141,3.314113 3.43058291,3.719521 1.7909601,0.49648 3.8322074,-0.279466 4.8119,-1.865974 C 9.8156956,9.9989345 9.9630172,7.4586044 9.9894894,5.0735097 9.9813558,3.8426089 9.90583,2.6111383 9.7441406,1.390625 9.5922387,0.00553662 7.3813312,0.50351555 7.7808033,1.8065797 8.052132,4.411045 8.1709089,7.107037 7.4397859,9.6501157 7.1138673,10.668642 6.5441349,11.904028 5.3559889,12.071842 4.321686,12.196851 3.097507,11.867657 2.6356816,10.838623 1.8454029,9.2527682 1.9522795,7.4012289 2.1242213,5.6878532 2.3039671,4.1439788 2.6574001,2.625868 3.0811477,1.1327885 3.1524144,0.66578029 2.8469884,0.18273586 2.3945313,0.046875 Z"
       id="path581" />
    <path
       style="color:#000000;fill:#000000;stroke-linecap:round;-inkscape-stroke:none"
       d="M 0.66601562,0.05664062 C -0.23017867,0.36403097 0.0020247,1.3226244 0.28234138,1.9708538 1.9857536,6.7774442 3.6891659,11.584035 5.3925781,16.390625 6.9746094,11.397786 8.5566407,6.4049479 10.138672,1.4121094 10.594943,0.04428663 8.2987531,-0.40556995 8.1558978,1.0501419 7.199635,4.0685842 6.2433722,7.0870266 5.2871094,10.105469 4.1725261,6.9589845 3.0579427,3.8125001 1.9433594,0.66601562 1.7791824,0.15678837 1.1651073,-0.13616485 0.66601562,0.05664062 Z"
       id="path583" />
    <path
       style="color:#000000;fill:#000000;stroke-linecap:round;-inkscape-stroke:none"
       d="M 0.71875,0.015625 C -0.50962319,0.47617347 0.26809489,1.8475304 0.3405338,2.7840788 0.948526,5.8586791 1.4909872,8.9534782 2.3281262,11.976288 c 0.070294,0.802841 0.8928385,1.71447 1.7089832,1.133087 0.5597043,-0.484487 0.4826273,-1.336369 0.7017731,-1.99344 0.4485528,-2.0954822 0.8519524,-4.2007544 1.3392425,-6.28781 0.5788933,2.3721897 1.0314386,4.7823665 1.7929687,7.105469 0.125649,0.761346 1.0968115,1.361342 1.7172054,0.733428 C 10.16124,11.939041 10.250215,10.964186 10.512067,10.099709 11.229545,7.0704439 11.861716,4.0179799 12.413792,0.95556948 12.354927,-0.38323928 10.414686,0.04619281 10.583098,1.273924 10.067738,3.9113726 9.5521798,6.550095 8.9179688,9.1621094 8.2162725,6.5284247 7.728563,3.8411179 6.9861995,1.218567 6.743356,0.49624856 5.6426226,0.37044053 5.2929687,1.0644531 4.7843954,2.1688716 4.6206587,3.3980713 4.3251438,4.5711679 4.005122,6.0259171 3.7050873,7.484947 3.4023438,8.9433594 2.7561816,6.22191 2.2557462,3.4687664 1.7382812,0.72070312 1.6667373,0.25779195 1.1771224,-0.08081143 0.71875,0.015625 Z"
       id="path585" />
    <path
       style="color:#000000;fill:#000000;stroke-linecap:round;-inkscape-stroke:none"
       d="M 1.0976562,0.28320313 C -0.23119534,0.2216555 -0.15857597,1.8182516 0.65177122,2.4360757 3.2136595,5.6649698 5.756054,8.9348199 7.8351445,12.5021 8.2212202,13.331507 8.9200101,14.75094 9.9919623,13.842366 10.69277,13.108641 9.9090388,12.218801 9.5792066,11.516188 7.5809148,8.0401207 5.1089132,4.8663874 2.6382745,1.7183737 2.1539127,1.2231749 1.8433713,0.42108103 1.0976562,0.28320313 Z"
       id="path587" />
    <path
       style="color:#000000;fill:#000000;stroke-linecap:round;-inkscape-stroke:none"
       d="M 9.8300781,0.20898438 C 8.4937449,-0.49830405 7.9355064,1.2215416 7.2266048,2.0048499 4.7394235,5.5110007 2.4472044,9.1508902 0.20703125,12.818359 -0.56548063,14.089596 1.5981078,14.961502 2.0465653,13.645423 4.6016579,9.5028053 7.1868984,5.3673485 10.102433,1.466646 10.330706,1.0514276 10.209752,0.49264353 9.8300781,0.20898438 Z"
       id="path589" />
    <path
       style="color:#000000;fill:#000000;stroke-linecap:round;-inkscape-stroke:none"
       d="M 5.390625,6.2558594 C 4.5640024,6.0730242 3.8723418,7.1530031 4.4160156,7.8261719 c -0.3257669,-0.7872075 0.00376,0.8607656 -0.066394,1.1831952 0.05276,1.6402019 0.06611,3.2813569 0.076159,4.9222779 -0.018059,1.465085 2.24262,1.152603 1.9991858,-0.160291 -0.038724,-2.211069 0.016099,-4.4310774 -0.1957707,-6.6342668 -0.055,-0.4310569 -0.3953193,-0.8179 -0.838571,-0.8812278 z"
       id="path591" />
    <path
       style="color:#000000;fill:#000000;stroke-linecap:round;-inkscape-stroke:none"
       d="M 0.73632812,0.0546875 C -0.70315192,0.68747323 0.44280058,2.0607513 0.8635078,2.9640512 1.8183861,4.7010056 2.7253043,6.4959147 4.0209445,8.009701 4.4536422,8.6520988 5.3742029,8.881898 6.0319718,8.4556882 7.197803,7.3887668 7.8798064,5.9213009 8.6402517,4.5605528 9.2034121,3.4720605 9.7735002,2.3832489 10.25865,1.2580939 10.634625,-0.05103035 8.5071609,-0.48639453 8.2536749,0.86063091 7.3639295,2.6839633 6.4876716,4.5285441 5.3482174,6.2122777 4.9738513,6.368869 4.6680828,5.4029084 4.3651541,5.0811088 3.4789661,3.6441449 2.6756872,2.1566186 1.9257812,0.64453125 l 0.039063,0.11132812 C 1.8383048,0.23638688 1.2479572,-0.10055239 0.73632812,0.0546875 Z"
       id="path593" />
    <path
       style="color:#000000;fill:#000000;stroke-linecap:round;-inkscape-stroke:none"
       d="M 7.0371094,0.01367188 C 4.9894649,-0.03536335 2.9449341,0.14891484 0.90625,0.31835938 -0.52790112,0.41718321 -0.07221951,2.6839152 1.2723383,2.2943035 2.9236588,2.1578015 4.5777549,2.0080425 6.2363281,2.0253906 4.283167,5.0568921 2.2512572,8.0438758 0.47596872,11.185081 0.0510675,11.80897 -0.20153141,12.826835 0.58815172,13.287703 1.6390236,13.718621 2.813732,13.551448 3.9216412,13.578054 5.4413972,13.5312 6.9649729,13.485361 8.4786905,13.345789 9.7903799,13.04984 9.1621664,10.977569 7.870125,11.396777 6.1019066,11.5038 4.3308277,11.608069 2.5585938,11.574221 4.4986211,8.234601 6.6872422,5.0472683 8.7675781,1.7949219 9.2118249,1.1095788 8.6501647,0.16423459 7.8672483,0.10191039 7.5949591,0.04010742 7.3151326,0.02583563 7.0371094,0.01367188 Z"
       id="path595" />
  </g>
</svg>
