<?xml version="1.0" encoding="UTF-8" standalone="no"?>
<!-- Created with Inkscape (http://www.inkscape.org/) -->

<svg
   width="9.5in"
   height="4.125in"
   viewBox="0 0 241.3 104.775"
   version="1.1"
   id="svg5"
   xmlns="http://www.w3.org/2000/svg"
   xmlns:svg="http://www.w3.org/2000/svg">
  <defs
     id="defs2">
    <rect
       x="124.60381"
       y="418.26422"
       width="28.842612"
       height="116.53656"
       id="rect60854" />
  </defs>
  <g
     id="layer1">
    <text
       xml:space="preserve"
       transform="scale(0.26458333)"
       id="text60852"
       style="fill:black;fill-opacity:1;line-height:1.25;stroke:none;font-family:sans-serif;font-style:normal;font-weight:normal;font-size:40px;white-space:pre;shape-inside:url(#rect60854)" />
    <path
       style="fill:none;stroke:#ff0000;stroke-width:1.765;stroke-linecap:round;stroke-linejoin:miter;stroke-miterlimit:4;stroke-dasharray:none;stroke-opacity:1"
       d="m 42.349691,42.473685 c 2.221971,-6.82249 3.20017,-10.190358 3.20017,-10.190358 0,0 1.063292,-3.675319 2.05758,-0.01627 0.994291,3.659055 2.83704,10.437058 2.83704,10.437058"
       id="path120391" />
    <path
       style="fill:none;stroke:#ff0000;stroke-width:1.5;stroke-linecap:round;stroke-linejoin:miter;stroke-opacity:1;stroke-miterlimit:4;stroke-dasharray:none"
       d="m 43.728814,37.701212 c 0,0 2.96839,0.690255 5.378675,0.02368"
       id="path122030" />
    <path
       style="fill:none;stroke:#ff0000;stroke-width:2;stroke-linecap:round;stroke-linejoin:round;stroke-opacity:1;stroke-miterlimit:4;stroke-dasharray:none;paint-order:normal"
       d="m 53.791545,29.757944 c 1.337749,1.566603 1.332415,4.481491 1.332415,4.481491 l -0.04741,6.808843 c 0,0 -0.369419,1.759791 2.885982,1.346314 3.255405,-0.413478 4.246356,-0.970238 4.58587,-3.275105 0.339513,-2.304868 -3.949817,-3.669599 -3.949817,-3.669599 0,0 2.963876,-0.969365 2.708977,-3.717758 -0.2549,-2.748397 -3.78764,-2.005648 -3.78764,-2.005648 0,0 -0.233366,-0.145499 -2.790053,1.773791"
       id="path122618" />
    <path
       style="fill:none;stroke:#ff0000;stroke-width:2;stroke-linecap:round;stroke-linejoin:round;stroke-opacity:1;stroke-miterlimit:4;stroke-dasharray:none"
       d="m 74.591131,32.179077 c 0,0 -3.831378,-4.061939 -7.520339,0.02106 -3.688958,4.082986 0.35855,8.612185 0.35855,8.612185 0,0 4.225036,4.544986 7.458213,-1.289135"
       id="path123594" />
    <path
       style="fill:none;stroke:#ee0000;stroke-width:2;stroke-linecap:round;stroke-linejoin:round;stroke-opacity:1;stroke-miterlimit:4;stroke-dasharray:none"
       d="m 79.326812,30.69271 -0.258051,11.251012 c 0,0 3.737891,0.578704 5.098551,-0.0025 1.344612,-0.574349 2.20258,-2.110689 2.20258,-2.110689 0,0 1.235808,-2.03945 1.243409,-3.432569 0.0089,-1.631033 -0.78703,-3.399063 -0.78703,-3.399063 0,0 -0.606578,-1.605775 -2.178457,-2.330632 -1.571882,-0.724861 -3.505154,-0.02106 -3.505154,-0.02106 0,0 -0.818429,0.256481 -1.409832,0.478274 -0.4941,0.185302 -0.477689,0.538046 -0.477689,0.538046"
       id="path123827" />
    <path
       style="fill:none;stroke:#ff0000;stroke-width:2;stroke-linecap:round;stroke-linejoin:round;stroke-opacity:1;stroke-miterlimit:4;stroke-dasharray:none"
       d="m 91.787521,30.58582 0.07558,11.264347"
       id="path124996" />
    <path
       style="fill:none;stroke:#ff0000;stroke-width:2;stroke-linecap:round;stroke-linejoin:round;stroke-opacity:1;stroke-miterlimit:4;stroke-dasharray:none"
       d="M 91.787521,30.58582 98.04484,30.6268"
       id="path124998" />
    <path
       style="fill:none;stroke:#ff0000;stroke-width:2;stroke-linecap:round;stroke-linejoin:round;stroke-opacity:1;stroke-miterlimit:4;stroke-dasharray:none"
       d="m 94.336898,36.055898 4.245882,0.08766"
       id="path125000" />
    <path
       style="fill:none;stroke:#ff0000;stroke-width:2;stroke-linecap:round;stroke-linejoin:round;stroke-opacity:1;stroke-miterlimit:4;stroke-dasharray:none"
       d="m 91.863099,41.850167 6.785108,0.167206"
       id="path125002" />
  </g>
</svg>
