<?xml version="1.0" encoding="UTF-8" standalone="no"?>
<!-- Created with Inkscape (http://www.inkscape.org/) -->

<svg
   width="210mm"
   height="297mm"
   viewBox="0 0 210 297"
   version="1.1"
   id="svg1429"
   inkscape:version="1.1.2 (0a00cf5339, 2022-02-04)"
   sodipodi:docname="handwriting_final.svg"
   xmlns:inkscape="http://www.inkscape.org/namespaces/inkscape"
   xmlns:sodipodi="http://sodipodi.sourceforge.net/DTD/sodipodi-0.dtd"
   xmlns="http://www.w3.org/2000/svg"
   xmlns:svg="http://www.w3.org/2000/svg">
  <sodipodi:namedview
     id="namedview1431"
     pagecolor="#ffffff"
     bordercolor="#666666"
     borderopacity="1.0"
     inkscape:pageshadow="2"
     inkscape:pageopacity="0.0"
     inkscape:pagecheckerboard="0"
     inkscape:document-units="mm"
     showgrid="false"
     inkscape:zoom="1.5680751"
     inkscape:cx="210.4491"
     inkscape:cy="188.76647"
     inkscape:window-width="1920"
     inkscape:window-height="1012"
     inkscape:window-x="1080"
     inkscape:window-y="655"
     inkscape:window-maximized="1"
     inkscape:current-layer="layer1" />
  <defs
     id="defs1426" />
  <g
     inkscape:label="Layer 1"
     inkscape:groupmode="layer"
     id="layer1">
    <path
       style="fill:none;stroke:#000000;stroke-width:0.264583px;stroke-linecap:butt;stroke-linejoin:miter;stroke-opacity:1"
       d="m 1.1969141,14.736725 c 0,0 3.4707672,-14.20266859 4.1493266,-12.7309592 0.6785607,1.4717091 3.9396389,12.4115332 3.9396389,12.4115332"
       id="path55784" />
    <path
       style="fill:none;stroke:#000000;stroke-width:0.264583px;stroke-linecap:butt;stroke-linejoin:miter;stroke-opacity:1"
       d="m 2.4902555,9.7308533 c 0,0 2.3386065,0.6148917 5.339254,-0.176125"
       id="path55786" />
    <path
       style="fill:none;stroke:#000000;stroke-width:0.264583px;stroke-linecap:butt;stroke-linejoin:miter;stroke-opacity:1"
       d="m 0.30733476,1.5405198 c 0,0 1.61987804,0.7054977 1.60453204,1.9888401 -0.01535,1.2833421 -0.7458037,10.4076671 0.01302,10.3721101 0.7588244,-0.03556 3.8763326,0.729115 5.7075657,-0.104373 1.8312331,-0.83349 1.6726491,-1.861983 1.6602031,-3.04762 C 9.2802256,9.5638373 8.2550432,8.6095099 7.7377835,8.2898412 6.8100031,7.7164685 5.058607,7.9864172 5.059062,7.4968345 5.059505,7.0199608 6.9407668,6.2810704 7.6064275,5.4423087 8.3485372,4.5072173 8.5906309,3.4184839 7.1997578,2.1816305 5.9089244,1.0337381 3.6121649,1.9230858 3.6121649,1.9230858 L 1.7606228,2.7632642"
       id="path65091"
       sodipodi:nodetypes="cssscsssscc" />
    <path
       style="fill:none;stroke:#000000;stroke-width:0.264583px;stroke-linecap:butt;stroke-linejoin:miter;stroke-opacity:1"
       d="m 9.0606796,4.2987013 c 0,0 -1.1065714,-2.3291305 -3.9089696,-2.2664275 -2.8023995,0.0627 -3.9851869,3.4036829 -3.9851869,3.4036829 0,0 -1.49238101,4.0461856 0.156072,6.0871443 1.6484541,2.040961 3.1217192,2.492518 3.1217192,2.492518 0,0 4.7002963,1.452859 5.127331,-2.903945"
       id="path69553" />
    <path
       style="fill:none;stroke:#000000;stroke-width:0.264583px;stroke-linecap:butt;stroke-linejoin:miter;stroke-opacity:1"
       d="m 1.2505781,2.2275075 c 0,0 -0.79880034,11.3329535 -0.153424,11.4972255 0.6453797,0.164272 4.1317399,0.439699 5.686629,-0.410141 C 8.5000219,12.376565 9.6418483,11.614699 9.4768013,8.4378849 9.3117546,5.2610717 8.3372592,3.0963482 6.1110094,2.4806735 3.8847556,1.8649998 1.2241361,2.9597892 1.2241361,2.9597892"
       id="path69557"
       sodipodi:nodetypes="cssssc" />
    <path
       style="fill:none;stroke:#000000;stroke-width:0.264583px;stroke-linecap:butt;stroke-linejoin:miter;stroke-opacity:1"
       d="M 1.3183621,2.4590605 1.0238171,13.890992"
       id="path70104" />
    <path
       style="fill:none;stroke:#000000;stroke-width:0.264583px;stroke-linecap:butt;stroke-linejoin:miter;stroke-opacity:1"
       d="m 1.3183621,2.4590605 c 0,0 5.5668457,0.120396 5.9035837,0.0637"
       id="path70106" />
    <path
       style="fill:none;stroke:#000000;stroke-width:0.264583px;stroke-linecap:butt;stroke-linejoin:miter;stroke-opacity:1"
       d="m 3.4266239,8.0642702 c 4.3523936,0.01958 4.4060506,-0.174093 4.4060506,-0.174093"
       id="path70110" />
    <path
       style="fill:none;stroke:#000000;stroke-width:0.264583px;stroke-linecap:butt;stroke-linejoin:miter;stroke-opacity:1"
       d="m 1.0238171,13.890992 c 6.6967354,0.01294 6.7668924,-0.138086 6.7668924,-0.138086"
       id="path70112" />
    <path
       style="fill:none;stroke:#000000;stroke-width:0.264583px;stroke-linecap:butt;stroke-linejoin:miter;stroke-opacity:1"
       d="m 2.2215765,14.179457 c 0,0 -0.2310047,-11.0951758 0.155501,-11.6383365 0.3865027,-0.5431597 5.068688,-0.07019 5.068688,-0.07019"
       id="path70114" />
    <path
       style="fill:none;stroke:#000000;stroke-width:0.264583px;stroke-linecap:butt;stroke-linejoin:miter;stroke-opacity:1"
       d="m 4.78603,8.7895279 c 0,0 2.9653295,0.2105967 3.8972099,-0.258144"
       id="path70116" />
    <path
       style="fill:none;stroke:#000000;stroke-width:0.264583px;stroke-linecap:butt;stroke-linejoin:miter;stroke-opacity:1"
       d="M 9.1802386,4.0856696 C 7.7909575,2.6403972 7.4673595,2.2961715 5.4385617,2.3629875 3.4097649,2.4298075 2.0414358,3.9359606 2.0414358,3.9359606 c 0,0 -1.61492904,1.6366301 -1.58942804,3.3648422 0.02551,1.7282098 0.36711167,3.4148002 1.32350004,4.7617622 0.9563894,1.34696 4.7244853,0.794959 4.7244853,0.794959 0,0 2.3866248,-0.346699 2.8646865,-0.684895"
       id="path70118" />
    <path
       style="fill:none;stroke:#000000;stroke-width:0.264583px;stroke-linecap:butt;stroke-linejoin:miter;stroke-opacity:1"
       d="m 9.4552676,15.094084 0.01744,-7.3093115"
       id="path70120" />
    <path
       style="fill:none;stroke:#000000;stroke-width:0.264583px;stroke-linecap:butt;stroke-linejoin:miter;stroke-opacity:1"
       d="m 6.1079444,7.7462785 5.4813396,0.04859"
       id="path70122" />
    <path
       style="fill:none;stroke:#000000;stroke-width:0.264583px;stroke-linecap:butt;stroke-linejoin:miter;stroke-opacity:1"
       d="M 0.35184276,3.0129142 C 2.7788062,6.4192851 1.7789128,14.629743 1.7789128,14.629743"
       id="path70124" />
    <path
       style="fill:none;stroke:#000000;stroke-width:0.264583px;stroke-linecap:butt;stroke-linejoin:miter;stroke-opacity:1"
       d="M 7.4293465,1.2505101 C 9.5817233,5.5658987 8.4971999,14.89825 8.4971999,14.89825"
       id="path70126" />
    <path
       style="fill:none;stroke:#000000;stroke-width:0.264583px;stroke-linecap:butt;stroke-linejoin:miter;stroke-opacity:1"
       d="M 1.9626828,9.1158696 8.7105799,8.8279869"
       id="path70128" />
    <path
       style="fill:none;stroke:#000000;stroke-width:0.264583px;stroke-linecap:butt;stroke-linejoin:miter;stroke-opacity:1"
       d="M 4.1839893,1.3342531 C 6.1912064,6.4292601 5.7337097,15.075249 5.7337097,15.075249"
       id="path70130" />
    <path
       style="fill:none;stroke:#000000;stroke-width:0.264583px;stroke-linecap:butt;stroke-linejoin:miter;stroke-opacity:1"
       d="M 0.40679276,2.2250998 9.5528533,1.1209264"
       id="path70132" />
    <path
       style="fill:none;stroke:#000000;stroke-width:0.264583px;stroke-linecap:butt;stroke-linejoin:miter;stroke-opacity:1"
       d="m 1.2018461,15.097807 8.2621505,0.02246"
       id="path70134" />
    <path
       style="fill:none;stroke:#000000;stroke-width:0.264583px;stroke-linecap:butt;stroke-linejoin:miter;stroke-opacity:1"
       d="m 2.2487469,12.84271 c 0,0 0.11681,2.06393 2.41194,2.042933 2.29514,-0.02101 2.89392,-1.060569 2.99817,-2.586733 0.10425,-1.526165 0.25952,-7.182414 -0.6038,-10.6349652"
       id="path70136" />
    <path
       style="fill:none;stroke:#000000;stroke-width:0.264583px;stroke-linecap:butt;stroke-linejoin:miter;stroke-opacity:1"
       d="M 1.8172869,2.2924515 1.7197869,13.9218"
       id="path70138" />
    <path
       style="fill:none;stroke:#000000;stroke-width:0.264583px;stroke-linecap:butt;stroke-linejoin:miter;stroke-opacity:1"
       d="m 7.9581709,1.8080158 c 0,0 0.943884,1.0522444 0.342167,2.0069698 -0.601724,0.9547244 -6.367584,4.5525556 -6.367584,4.5525556 0,0 6.417794,2.0587718 7.342231,5.7363238"
       id="path70140" />
    <path
       style="fill:none;stroke:#000000;stroke-width:0.264583px;stroke-linecap:butt;stroke-linejoin:miter;stroke-opacity:1"
       d="m 1.7331092,2.0289188 c 0,0 -0.16681,12.0639032 0.680484,12.2271512 0.847297,0.163245 6.508614,-0.0079 6.508614,-0.0079"
       id="path70142" />
    <path
       style="fill:none;stroke:#000000;stroke-width:0.23184px;stroke-linecap:butt;stroke-linejoin:miter;stroke-opacity:1"
       d="m 0.11521874,13.497911 c 0,0 1.08788396,-9.8453194 1.75107796,-9.8389104 0.663197,0.0064 2.744985,9.6292314 3.271312,9.6085644 0.526317,-0.02066 2.887065,-10.5491208 3.630219,-10.5298278 0.7431666,0.01929 1.2722643,10.8206048 1.2722643,10.8206048"
       id="path70144" />
    <path
       style="fill:none;stroke:#000000;stroke-width:0.264583px;stroke-linecap:butt;stroke-linejoin:miter;stroke-opacity:1"
       d="m 1.2051952,14.107779 c 0,0 -0.14152,-10.7181691 0.457617,-11.0005268 0.599137,-0.282358 6.410244,11.1139318 7.006361,10.9124678 0.596114,-0.201462 0.352197,-12.2872112 0.352197,-12.2872112"
       id="path70146" />
    <path
       style="fill:none;stroke:#000000;stroke-width:0.264583px;stroke-linecap:butt;stroke-linejoin:miter;stroke-opacity:1"
       d="m 4.1796221,3.5745019 c 0,0 -3.63696904,1.7170848 -3.51515904,4.5522763 0.12182,2.8351898 0.93132404,5.3952258 3.44780904,5.5069708 2.516478,0.111744 4.617296,-2.019427 4.614596,-4.7956311 -0.003,-2.7762045 -1.325674,-5.26607 -4.201646,-5.228663"
       id="path70148"
       sodipodi:nodetypes="csssc" />
    <path
       style="fill:none;stroke:#000000;stroke-width:0.264583px;stroke-linecap:butt;stroke-linejoin:miter;stroke-opacity:1"
       d="m 0.60291191,1.4202671 c 0,0 1.95060799,1.3097311 1.86692099,2.3795655 -0.0837,1.0698314 -0.31076,11.4359624 -0.31076,11.4359624"
       id="path70387" />
    <path
       style="fill:none;stroke:#000000;stroke-width:0.264583px;stroke-linecap:butt;stroke-linejoin:miter;stroke-opacity:1"
       d="m 2.6665399,3.4239849 c 0,0 1.571611,-1.8919128 4.337636,-1.3070174 2.766035,0.5848977 2.060058,4.9941183 2.060058,4.9941183 0,0 -0.286147,2.5251155 -2.615325,2.6059385 -2.329188,0.08082 -4.091306,-1.2327674 -4.091306,-1.2327674"
       id="path70389" />
    <path
       style="fill:none;stroke:#000000;stroke-width:0.264583px;stroke-linecap:butt;stroke-linejoin:miter;stroke-opacity:1"
       d="m 4.3567606,3.2282219 c 0,0 -3.77636899,1.4907701 -3.69397899,5.7370337 0.0824,4.2462684 3.91469899,4.7247674 3.91469899,4.7247674 0,0 4.730573,0.552365 4.685313,-5.0657381 -0.0453,-5.6180987 -4.796073,-5.389747 -4.796073,-5.389747"
       id="path70391" />
    <path
       style="fill:none;stroke:#000000;stroke-width:0.264583px;stroke-linecap:butt;stroke-linejoin:miter;stroke-opacity:1"
       d="m 5.5635946,9.6935453 c 0,0 1.753241,4.1124307 3.470639,4.1007237 1.7174114,-0.01172 2.2394884,-0.241724 2.2394884,-0.241724"
       id="path70393" />
    <path
       style="fill:none;stroke:#000000;stroke-width:0.264583px;stroke-linecap:butt;stroke-linejoin:miter;stroke-opacity:1"
       d="m 0.60284739,1.4651241 c 0,0 1.67785801,1.1251644 1.69624801,2.4786265 0.0184,1.3534591 -0.236047,11.2107254 -0.236047,11.2107254"
       id="path70395" />
    <path
       style="fill:none;stroke:#000000;stroke-width:0.264583px;stroke-linecap:butt;stroke-linejoin:miter;stroke-opacity:1"
       d="m 2.2892154,3.4743159 c 0,0 0.973017,-1.3647724 3.003925,-1.4053014 2.030908,-0.04053 2.908492,1.4852004 2.908492,1.4852004 0,0 1.769131,2.4305725 0.461387,4.3146746 -1.307751,1.8841048 -3.140252,1.6572638 -3.140252,1.6572638 0,0 -2.399915,0.09602 -3.328179,-1.1430521"
       id="path70397" />
    <path
       style="fill:none;stroke:#000000;stroke-width:0.264583px;stroke-linecap:butt;stroke-linejoin:miter;stroke-opacity:1"
       d="m 5.9553074,9.6230893 c 0,0 2.852962,2.7809337 3.149182,5.2785767"
       id="path70399" />
    <path
       style="fill:none;stroke:#000000;stroke-width:0.264583px;stroke-linecap:butt;stroke-linejoin:miter;stroke-opacity:1"
       d="m 7.8738646,3.3017679 c 0,0 -2.463278,-2.99714209 -5.29329,-0.2102427 -2.83001506,2.7868992 2.221975,4.984871 2.221975,4.984871 0,0 3.566632,1.1578004 3.570372,4.2778088 0.004,3.120006 -4.001369,2.651183 -4.675106,2.419072 -0.673744,-0.232111 -2.002948,-1.179806 -2.002948,-1.179806"
       id="path70401" />
    <path
       style="fill:none;stroke:#000000;stroke-width:0.264583px;stroke-linecap:butt;stroke-linejoin:miter;stroke-opacity:1"
       d="m 5.4773897,2.6130292 0.10097,12.1089028"
       id="path70403" />
    <path
       style="fill:none;stroke:#000000;stroke-width:0.264583px;stroke-linecap:butt;stroke-linejoin:miter;stroke-opacity:1"
       d="m 0.46672276,2.1695105 c 0,0 8.37279714,0.9839344 9.95308724,-0.105881"
       id="path70405" />
    <path
       style="fill:none;stroke:#000000;stroke-width:0.264583px;stroke-linecap:butt;stroke-linejoin:miter;stroke-opacity:1"
       d="m 2.0077296,2.3381195 c 0,0 -3.120912,12.1798485 2.836125,11.9226465 5.9570274,-0.257201 3.854769,-11.5595568 3.854769,-11.5595568"
       id="path70407" />
    <path
       style="fill:none;stroke:#000000;stroke-width:0.264583px;stroke-linecap:butt;stroke-linejoin:miter;stroke-opacity:1"
       d="m 0.85620943,1.3560631 c 0,0 4.18155357,14.8175959 4.51981027,13.3355029 0.33826,-1.482093 3.7903569,-12.9231052 3.7903569,-12.9231052"
       id="path70409" />
    <path
       style="fill:none;stroke:#000000;stroke-width:0.224944px;stroke-linecap:butt;stroke-linejoin:miter;stroke-opacity:1"
       d="m 0.1083317,3.4213576 c 0,0 2.0840715,11.0339914 2.6512449,11.0076414 C 3.3267526,14.40264 4.4737232,3.5418293 5.0896015,3.5265145 5.7054825,3.5112078 7.488514,14.273829 7.9675436,14.300324 8.4465732,14.326823 10.453156,3.2323891 10.453156,3.2323891"
       id="path70413" />
    <path
       style="fill:none;stroke:#000000;stroke-width:0.264583px;stroke-linecap:butt;stroke-linejoin:miter;stroke-opacity:1"
       d="m 0.72832783,14.509231 c 0,0 7.83434007,-11.7669528 8.11458007,-12.0891465"
       id="path70415" />
    <path
       style="fill:none;stroke:#000000;stroke-width:0.264583px;stroke-linecap:butt;stroke-linejoin:miter;stroke-opacity:1"
       d="M 0.63739783,2.3821405 C 9.0684779,14.377318 9.0932379,14.715548 9.0932379,14.715548"
       id="path70417" />
    <path
       style="fill:none;stroke:#000000;stroke-width:0.264583px;stroke-linecap:butt;stroke-linejoin:miter;stroke-opacity:1"
       d="M 5.600305,14.948804 C 5.515905,8.6243089 5.754115,8.6292329 5.754115,8.6292329"
       id="path70419" />
    <path
       style="fill:none;stroke:#000000;stroke-width:0.264583px;stroke-linecap:butt;stroke-linejoin:miter;stroke-opacity:1"
       d="m 1.171735,2.6275492 c 0,0 3.78834,6.3060467 4.43217,6.3351034 0.64383,0.02906 3.83428,-6.6384451 3.83428,-6.6384451"
       id="path70421" />
    <path
       style="fill:none;stroke:#000000;stroke-width:0.264583px;stroke-linecap:butt;stroke-linejoin:miter;stroke-opacity:1"
       d="m 1.5327797,2.9232182 c 0,0 6.4121101,-0.8425467 6.7906901,-0.241802 0.37857,0.6007407 -7.38677009,10.2549148 -7.1219401,10.9572248 0.26482,0.70231 7.6767901,0.131021 7.6767901,0.131021"
       id="path70423" />
  </g>
</svg>
