<?xml version="1.0" encoding="UTF-8" standalone="no"?>
<!-- Created with Inkscape (http://www.inkscape.org/) -->

<svg
   width="210mm"
   height="297mm"
   viewBox="0 0 210 297"
   version="1.1"
   id="svg1429"
   inkscape:version="1.1.2 (0a00cf5339, 2022-02-04)"
   sodipodi:docname="handwriting3.svg"
   xmlns:inkscape="http://www.inkscape.org/namespaces/inkscape"
   xmlns:sodipodi="http://sodipodi.sourceforge.net/DTD/sodipodi-0.dtd"
   xmlns="http://www.w3.org/2000/svg"
   xmlns:svg="http://www.w3.org/2000/svg">
  <sodipodi:namedview
     id="namedview1431"
     pagecolor="#ffffff"
     bordercolor="#666666"
     borderopacity="1.0"
     inkscape:pageshadow="2"
     inkscape:pageopacity="0.0"
     inkscape:pagecheckerboard="0"
     inkscape:document-units="mm"
     showgrid="false"
     inkscape:zoom="1.3161734"
     inkscape:cx="299.35265"
     inkscape:cy="79.016943"
     inkscape:window-width="1920"
     inkscape:window-height="1012"
     inkscape:window-x="1080"
     inkscape:window-y="655"
     inkscape:window-maximized="1"
     inkscape:current-layer="layer1" />
  <defs
     id="defs1426" />
  <g
     inkscape:label="Layer 1"
     inkscape:groupmode="layer"
     id="layer1">
    <path
       style="fill:none;stroke:#000000;stroke-width:0.264583px;stroke-linecap:butt;stroke-linejoin:miter;stroke-opacity:1"
       d="m 1.1969141,14.736725 c 0,0 3.4707672,-14.20266859 4.1493266,-12.7309592 0.6785607,1.4717091 3.9396389,12.4115332 3.9396389,12.4115332"
       id="path55784" />
    <path
       style="fill:none;stroke:#000000;stroke-width:0.264583px;stroke-linecap:butt;stroke-linejoin:miter;stroke-opacity:1"
       d="m 2.4902555,9.7308533 c 0,0 2.3386065,0.6148917 5.339254,-0.176125"
       id="path55786" />
    <path
       style="fill:none;stroke:#000000;stroke-width:0.264583px;stroke-linecap:butt;stroke-linejoin:miter;stroke-opacity:1"
       d="m 0.30733476,1.5405198 c 0,0 1.61987804,0.7054977 1.60453204,1.9888401 -0.01535,1.2833421 -0.7458037,10.4076671 0.01302,10.3721101 0.7588244,-0.03556 3.8763326,0.729115 5.7075657,-0.104373 1.8312331,-0.83349 1.6726491,-1.861983 1.6602031,-3.04762 C 9.2802256,9.5638373 8.2550432,8.6095099 7.7377835,8.2898412 6.8100031,7.7164685 5.058607,7.9864172 5.059062,7.4968345 5.059505,7.0199608 6.9407668,6.2810704 7.6064275,5.4423087 8.3485372,4.5072173 8.5906309,3.4184839 7.1997578,2.1816305 5.9089244,1.0337381 3.6121649,1.9230858 3.6121649,1.9230858 L 1.7606228,2.7632642"
       id="path65091"
       sodipodi:nodetypes="cssscsssscc" />
    <path
       style="fill:none;stroke:#000000;stroke-width:0.264583px;stroke-linecap:butt;stroke-linejoin:miter;stroke-opacity:1"
       d="m 9.0606796,4.2987013 c 0,0 -1.1065714,-2.3291305 -3.9089696,-2.2664275 -2.8023995,0.0627 -3.9851869,3.4036829 -3.9851869,3.4036829 0,0 -1.49238101,4.0461856 0.156072,6.0871443 1.6484541,2.040961 3.1217192,2.492518 3.1217192,2.492518 0,0 4.7002963,1.452859 5.127331,-2.903945"
       id="path69553" />
    <path
       style="fill:none;stroke:#000000;stroke-width:0.264583px;stroke-linecap:butt;stroke-linejoin:miter;stroke-opacity:1"
       d="m 1.2505781,2.2275075 c 0,0 -0.79880034,11.3329535 -0.153424,11.4972255 0.6453797,0.164272 4.1317399,0.439699 5.686629,-0.410141 C 8.5000219,12.376565 9.6418483,11.614699 9.4768013,8.4378849 9.3117546,5.2610717 8.3372592,3.0963482 6.1110094,2.4806735 3.8847556,1.8649998 1.2241361,2.9597892 1.2241361,2.9597892"
       id="path69557"
       sodipodi:nodetypes="cssssc" />
    <path
       style="fill:none;stroke:#000000;stroke-width:0.264583px;stroke-linecap:butt;stroke-linejoin:miter;stroke-opacity:1"
       d="M 1.3183621,2.4590605 1.0238171,13.890992"
       id="path70104" />
    <path
       style="fill:none;stroke:#000000;stroke-width:0.264583px;stroke-linecap:butt;stroke-linejoin:miter;stroke-opacity:1"
       d="m 1.3183621,2.4590605 c 0,0 5.5668457,0.120396 5.9035837,0.0637"
       id="path70106" />
    <path
       style="fill:none;stroke:#000000;stroke-width:0.264583px;stroke-linecap:butt;stroke-linejoin:miter;stroke-opacity:1"
       d="m 3.4266239,8.0642702 c 4.3523936,0.01958 4.4060506,-0.174093 4.4060506,-0.174093"
       id="path70110" />
    <path
       style="fill:none;stroke:#000000;stroke-width:0.264583px;stroke-linecap:butt;stroke-linejoin:miter;stroke-opacity:1"
       d="m 1.0238171,13.890992 c 6.6967354,0.01294 6.7668924,-0.138086 6.7668924,-0.138086"
       id="path70112" />
    <path
       style="fill:none;stroke:#000000;stroke-width:0.264583px;stroke-linecap:butt;stroke-linejoin:miter;stroke-opacity:1"
       d="m 79.479954,14.179457 c 0,0 -0.231005,-11.0951758 0.155501,-11.6383365 0.386503,-0.5431597 5.068691,-0.07019 5.068691,-0.07019"
       id="path70114" />
    <path
       style="fill:none;stroke:#000000;stroke-width:0.264583px;stroke-linecap:butt;stroke-linejoin:miter;stroke-opacity:1"
       d="m 82.044409,8.7895279 c 0,0 2.965331,0.2105967 3.897212,-0.258144"
       id="path70116" />
    <path
       style="fill:none;stroke:#000000;stroke-width:0.264583px;stroke-linecap:butt;stroke-linejoin:miter;stroke-opacity:1"
       d="m 98.080294,4.0856696 c -1.389282,-1.4452724 -1.71288,-1.7894981 -3.741679,-1.7226821 -2.028798,0.06682 -3.397128,1.5729731 -3.397128,1.5729731 0,0 -1.61493,1.6366301 -1.589429,3.3648422 0.02551,1.7282098 0.367112,3.4148002 1.323501,4.7617622 0.95639,1.34696 4.724488,0.794959 4.724488,0.794959 0,0 2.386626,-0.346699 2.864688,-0.684895"
       id="path70118" />
    <path
       style="fill:none;stroke:#000000;stroke-width:0.264583px;stroke-linecap:butt;stroke-linejoin:miter;stroke-opacity:1"
       d="m 98.355323,15.094084 0.01744,-7.3093115"
       id="path70120" />
    <path
       style="fill:none;stroke:#000000;stroke-width:0.264583px;stroke-linecap:butt;stroke-linejoin:miter;stroke-opacity:1"
       d="m 95.007998,7.7462785 5.481342,0.04859"
       id="path70122" />
    <path
       style="fill:none;stroke:#000000;stroke-width:0.264583px;stroke-linecap:butt;stroke-linejoin:miter;stroke-opacity:1"
       d="m 103.01025,3.0129142 c 2.42698,3.4063709 1.42708,11.6168288 1.42708,11.6168288"
       id="path70124" />
    <path
       style="fill:none;stroke:#000000;stroke-width:0.264583px;stroke-linecap:butt;stroke-linejoin:miter;stroke-opacity:1"
       d="m 110.0878,1.2505101 c 2.15239,4.3153886 1.06786,13.6477399 1.06786,13.6477399"
       id="path70126" />
    <path
       style="fill:none;stroke:#000000;stroke-width:0.264583px;stroke-linecap:butt;stroke-linejoin:miter;stroke-opacity:1"
       d="m 104.6211,9.1158696 6.74794,-0.2878827"
       id="path70128" />
    <path
       style="fill:none;stroke:#000000;stroke-width:0.264583px;stroke-linecap:butt;stroke-linejoin:miter;stroke-opacity:1"
       d="m 116.36748,1.3342531 c 2.00723,5.095007 1.54973,13.7409959 1.54973,13.7409959"
       id="path70130" />
    <path
       style="fill:none;stroke:#000000;stroke-width:0.264583px;stroke-linecap:butt;stroke-linejoin:miter;stroke-opacity:1"
       d="m 112.55989,1.9672928 9.14612,-1.10417337"
       id="path70132" />
    <path
       style="fill:none;stroke:#000000;stroke-width:0.264583px;stroke-linecap:butt;stroke-linejoin:miter;stroke-opacity:1"
       d="m 113.38532,15.097807 8.2622,0.02246"
       id="path70134" />
    <path
       style="fill:none;stroke:#000000;stroke-width:0.264583px;stroke-linecap:butt;stroke-linejoin:miter;stroke-opacity:1"
       d="m 122.78491,12.84271 c 0,0 0.11681,2.06393 2.41194,2.042933 2.29514,-0.02101 2.89392,-1.060569 2.99817,-2.586733 0.10425,-1.526165 0.25952,-7.182414 -0.6038,-10.6349652"
       id="path70136" />
    <path
       style="fill:none;stroke:#000000;stroke-width:0.264583px;stroke-linecap:butt;stroke-linejoin:miter;stroke-opacity:1"
       d="M 132.72869,2.2924515 132.63119,13.9218"
       id="path70138" />
    <path
       style="fill:none;stroke:#000000;stroke-width:0.264583px;stroke-linecap:butt;stroke-linejoin:miter;stroke-opacity:1"
       d="m 138.86961,1.8080158 c 0,0 0.94389,1.0522444 0.34217,2.0069698 -0.60173,0.9547244 -6.36762,4.5525556 -6.36762,4.5525556 0,0 6.41783,2.0587718 7.34227,5.7363238"
       id="path70140" />
    <path
       style="fill:none;stroke:#000000;stroke-width:0.264583px;stroke-linecap:butt;stroke-linejoin:miter;stroke-opacity:1"
       d="m 143.8077,2.0289188 c 0,0 -0.16681,12.0639032 0.68049,12.2271512 0.8473,0.163245 6.50865,-0.0079 6.50865,-0.0079"
       id="path70142" />
    <path
       style="fill:none;stroke:#000000;stroke-width:0.23184px;stroke-linecap:butt;stroke-linejoin:miter;stroke-opacity:1"
       d="m 158.08702,13.497911 c 0,0 1.08789,-9.8453194 1.75109,-9.8389104 0.6632,0.0064 2.745,9.6292314 3.27133,9.6085644 0.52632,-0.02066 2.88708,-10.5491208 3.63024,-10.5298278 0.74317,0.01929 1.27227,10.8206048 1.27227,10.8206048"
       id="path70144" />
    <path
       style="fill:none;stroke:#000000;stroke-width:0.264583px;stroke-linecap:butt;stroke-linejoin:miter;stroke-opacity:1"
       d="m 171.86107,14.107779 c 0,0 -0.14152,-10.7181691 0.45762,-11.0005268 0.59914,-0.282358 6.41028,11.1139318 7.0064,10.9124678 0.59612,-0.201462 0.3522,-12.2872112 0.3522,-12.2872112"
       id="path70146" />
    <path
       style="fill:none;stroke:#000000;stroke-width:0.264583px;stroke-linecap:butt;stroke-linejoin:miter;stroke-opacity:1"
       d="m 186.41662,3.5745019 c 0,0 -3.63699,1.7170848 -3.51518,4.5522763 0.12182,2.8351898 0.93133,5.3952258 3.44783,5.5069708 2.51649,0.111744 4.61732,-2.019427 4.61462,-4.7956311 -0.003,-2.7762045 -1.32568,-5.26607 -4.20167,-5.228663"
       id="path70148"
       sodipodi:nodetypes="csssc" />
    <path
       style="fill:none;stroke:#000000;stroke-width:0.264583px;stroke-linecap:butt;stroke-linejoin:miter;stroke-opacity:1"
       d="m 194.41231,1.4202671 c 0,0 1.95062,1.3097311 1.86693,2.3795655 -0.0837,1.0698314 -0.31076,11.4359624 -0.31076,11.4359624"
       id="path70387" />
    <path
       style="fill:none;stroke:#000000;stroke-width:0.264583px;stroke-linecap:butt;stroke-linejoin:miter;stroke-opacity:1"
       d="m 196.47595,3.4239849 c 0,0 1.57162,-1.8919128 4.33766,-1.3070174 2.76605,0.5848977 2.06007,4.9941183 2.06007,4.9941183 0,0 -0.28615,2.5251155 -2.61534,2.6059385 -2.3292,0.08082 -4.09133,-1.2327674 -4.09133,-1.2327674"
       id="path70389" />
    <path
       style="fill:none;stroke:#000000;stroke-width:0.264583px;stroke-linecap:butt;stroke-linejoin:miter;stroke-opacity:1"
       d="m 210.76105,3.2282219 c 0,0 -3.77639,1.4907701 -3.694,5.7370337 0.0824,4.2462684 3.91472,4.7247674 3.91472,4.7247674 0,0 4.7306,0.552365 4.68534,-5.0657381 -0.0453,-5.6180987 -4.7961,-5.389747 -4.7961,-5.389747"
       id="path70391" />
    <path
       style="fill:none;stroke:#000000;stroke-width:0.264583px;stroke-linecap:butt;stroke-linejoin:miter;stroke-opacity:1"
       d="m 211.96789,9.6935453 c 0,0 1.75325,4.1124307 3.47066,4.1007237 1.71742,-0.01172 2.2395,-0.241724 2.2395,-0.241724"
       id="path70393" />
    <path
       style="fill:none;stroke:#000000;stroke-width:0.264583px;stroke-linecap:butt;stroke-linejoin:miter;stroke-opacity:1"
       d="m 220.58475,1.4651241 c 0,0 1.67787,1.1251644 1.69626,2.4786265 0.0184,1.3534591 -0.23605,11.2107254 -0.23605,11.2107254"
       id="path70395" />
    <path
       style="fill:none;stroke:#000000;stroke-width:0.264583px;stroke-linecap:butt;stroke-linejoin:miter;stroke-opacity:1"
       d="m 222.27113,3.4743159 c 0,0 0.97302,-1.3647724 3.00394,-1.4053014 2.03092,-0.04053 2.90851,1.4852004 2.90851,1.4852004 0,0 1.76914,2.4305725 0.46139,4.3146746 -1.30776,1.8841048 -3.14027,1.6572638 -3.14027,1.6572638 0,0 -2.39993,0.09602 -3.3282,-1.1430521"
       id="path70397" />
    <path
       style="fill:none;stroke:#000000;stroke-width:0.264583px;stroke-linecap:butt;stroke-linejoin:miter;stroke-opacity:1"
       d="m 225.93724,9.6230893 c 0,0 2.85298,2.7809337 3.1492,5.2785767"
       id="path70399" />
    <path
       style="fill:none;stroke:#000000;stroke-width:0.264583px;stroke-linecap:butt;stroke-linejoin:miter;stroke-opacity:1"
       d="m 238.62809,3.3017679 c 0,0 -2.46329,-2.99714209 -5.29332,-0.2102427 -2.83003,2.7868992 2.22199,4.984871 2.22199,4.984871 0,0 3.56665,1.1578004 3.57039,4.2778088 0.004,3.120006 -4.00139,2.651183 -4.67513,2.419072 -0.67375,-0.232111 -2.00296,-1.179806 -2.00296,-1.179806"
       id="path70401" />
    <path
       style="fill:none;stroke:#000000;stroke-width:0.264583px;stroke-linecap:butt;stroke-linejoin:miter;stroke-opacity:1"
       d="m 247.30754,2.6130292 0.10097,12.1089028"
       id="path70403" />
    <path
       style="fill:none;stroke:#000000;stroke-width:0.264583px;stroke-linecap:butt;stroke-linejoin:miter;stroke-opacity:1"
       d="m 242.29684,2.1695105 c 0,0 8.37285,0.9839344 9.95315,-0.105881"
       id="path70405" />
    <path
       style="fill:none;stroke:#000000;stroke-width:0.264583px;stroke-linecap:butt;stroke-linejoin:miter;stroke-opacity:1"
       d="m 256.78934,2.3381195 c 0,0 -3.12093,12.1798485 2.83614,11.9226465 5.95706,-0.257201 3.85479,-11.5595568 3.85479,-11.5595568"
       id="path70407" />
    <path
       style="fill:none;stroke:#000000;stroke-width:0.264583px;stroke-linecap:butt;stroke-linejoin:miter;stroke-opacity:1"
       d="m 267.02815,1.3560631 c 0,0 4.18158,14.8175959 4.51984,13.3355029 0.33826,-1.482093 3.79038,-12.9231052 3.79038,-12.9231052"
       id="path70409" />
    <path
       style="fill:none;stroke:#000000;stroke-width:0.240834px;stroke-linecap:butt;stroke-linejoin:miter;stroke-opacity:1"
       d="m 281.22283,3.4273209 c 0,0 2.39153,11.0219341 3.04238,10.9956131 0.65085,-0.02633 1.96703,-10.8752731 2.67377,-10.8905711 0.70674,-0.01529 2.75282,10.7355711 3.30252,10.7620371 0.5497,0.02647 2.85231,-11.0558411 2.85231,-11.0558411"
       id="path70413" />
    <path
       style="fill:none;stroke:#000000;stroke-width:0.264583px;stroke-linecap:butt;stroke-linejoin:miter;stroke-opacity:1"
       d="m 296.40627,14.509231 c 0,0 7.83434,-11.7669528 8.11458,-12.0891465"
       id="path70415" />
    <path
       style="fill:none;stroke:#000000;stroke-width:0.264583px;stroke-linecap:butt;stroke-linejoin:miter;stroke-opacity:1"
       d="m 296.31534,2.3821405 c 8.43108,11.9951775 8.45584,12.3334075 8.45584,12.3334075"
       id="path70417" />
    <path
       style="fill:none;stroke:#000000;stroke-width:0.264583px;stroke-linecap:butt;stroke-linejoin:miter;stroke-opacity:1"
       d="m 312.23458,14.948804 c -0.0844,-6.3244951 0.15381,-6.3195711 0.15381,-6.3195711"
       id="path70419" />
    <path
       style="fill:none;stroke:#000000;stroke-width:0.264583px;stroke-linecap:butt;stroke-linejoin:miter;stroke-opacity:1"
       d="m 307.80601,2.6275492 c 0,0 3.78834,6.3060467 4.43217,6.3351034 0.64383,0.02906 3.83428,-6.6384451 3.83428,-6.6384451"
       id="path70421" />
    <path
       style="fill:none;stroke:#000000;stroke-width:0.264583px;stroke-linecap:butt;stroke-linejoin:miter;stroke-opacity:1"
       d="m 319.37896,2.9232182 c 0,0 6.41211,-0.8425467 6.79069,-0.241802 0.37857,0.6007407 -7.38677,10.2549148 -7.12194,10.9572248 0.26482,0.70231 7.67679,0.131021 7.67679,0.131021"
       id="path70423" />
  </g>
</svg>
