<?xml version="1.0" encoding="UTF-8" standalone="no"?>
<!-- Created with Inkscape (http://www.inkscape.org/) -->

<svg
   width="210mm"
   height="297mm"
   viewBox="0 0 210 297"
   version="1.1"
   id="svg5"
   inkscape:version="1.2.2 (b0a8486541, 2022-12-01)"
   sodipodi:docname="numbers.svg"
   xmlns:inkscape="http://www.inkscape.org/namespaces/inkscape"
   xmlns:sodipodi="http://sodipodi.sourceforge.net/DTD/sodipodi-0.dtd"
   xmlns="http://www.w3.org/2000/svg"
   xmlns:svg="http://www.w3.org/2000/svg">
  <sodipodi:namedview
     id="namedview7"
     pagecolor="#ffffff"
     bordercolor="#999999"
     borderopacity="1"
     inkscape:showpageshadow="0"
     inkscape:pageopacity="0"
     inkscape:pagecheckerboard="0"
     inkscape:deskcolor="#d1d1d1"
     inkscape:document-units="mm"
     showgrid="false"
     inkscape:zoom="4.6158167"
     inkscape:cx="15.706863"
     inkscape:cy="119.80545"
     inkscape:window-width="1080"
     inkscape:window-height="1892"
     inkscape:window-x="0"
     inkscape:window-y="0"
     inkscape:window-maximized="1"
     inkscape:current-layer="layer1" />
  <defs
     id="defs2" />
  <g
     inkscape:label="Layer 1"
     inkscape:groupmode="layer"
     id="layer1">
    <text
       xml:space="preserve"
       style="font-style:normal;font-variant:normal;font-weight:normal;font-stretch:normal;font-size:25.4px;font-family:'Gamja Flower';-inkscape-font-specification:'Gamja Flower';white-space:pre;inline-size:17.3304;display:inline;fill:#000000;stroke-width:0.264583"
       x="96.556007"
       y="153.44058"
       id="text113"><tspan
         x="96.556007"
         y="153.44058"
         id="tspan2694"><tspan
           dx="0 12.005468 9.6242199 10.765232 12.00547 9.624218 10.765232"
           id="tspan2692">asdasda</tspan></tspan></text>
    <path
       style="fill:none;stroke:#ff0f0f;stroke-width:0.264583;stroke-opacity:1"
       d="m 4.2817623,2.2405277 c 0,0 -3.57049698,1.09179 -3.46756796,5.23156 0.102928,4.1397693 3.45014496,4.6491493 3.45014496,4.6491493 0,0 4.758925,0.54939 4.619789,-4.8333593 -0.139139,-5.3827501 -4.602366,-5.04735 -4.602366,-5.04735 z"
       id="path223" />
    <path
       style="fill:none;stroke:#ff0f0f;stroke-width:0.264583;stroke-opacity:1"
       d="m 2.0037553,3.8752177 c 0.06112,0.0571 6.048279,6.6969903 6.048279,6.6969903 L 1.8720273,3.9351577"
       id="path1064" />
    <path
       style="fill:none;stroke:#ff0f0f;stroke-width:0.264583;stroke-opacity:1"
       d="m 4.9001344,0.12712628 c 0,0 0.310671,8.42092002 -0.145711,12.21687972"
       id="path1066" />
    <path
       style="fill:none;stroke:#ff0f0f;stroke-width:0.264583;stroke-opacity:1"
       d="m 0.85767724,2.893501 c 0,0 2.09344996,-3.31201003 4.97881996,-2.31097003 2.8853602,1.00104003 1.03465,5.17233003 1.03465,5.17233003 0,0 -3.24351,4.443649 -5.12446,6.008389 -1.88093996,1.56473 7.0922702,0.24361 7.0922702,0.24361"
       id="path1068" />
    <path
       style="fill:none;stroke:#ff0f0f;stroke-width:0.264583;stroke-opacity:1"
       d="m 1.9279312,2.5795856 c 0,0 0.82992,-2.12254997 2.77869,-2.20260997 1.94877,-0.08 2.31152,2.30894997 2.31152,2.30894997 0,0 0.69327,2.01337 -2.68457,3.38653 -3.37783001,1.37316 4.1559,-1.20596 3.88328,3.54 -0.27261,4.7459704 -4.77741,3.2249204 -4.77741,3.2249204 0,0 -2.00555,-0.8512 -2.41775,-1.669"
       id="path1101" />
    <path
       style="fill:none;stroke:#ff0f0f;stroke-width:0.264583;stroke-opacity:1"
       d="m 1.9441431,1.245542 c 0,0 -2.08142003,7.3333705 -1.43868003,7.5905605 0.64273003,0.25718 9.06457043,-0.061 9.06457043,-0.061"
       id="path1103" />
    <path
       style="fill:none;stroke:#ff0f0f;stroke-width:0.264583;stroke-opacity:1"
       d="M 6.6214731,0.19330199 6.7420131,12.709822"
       id="path1105" />
    <path
       style="fill:none;stroke:#ff0f0f;stroke-width:0.264583;stroke-opacity:1"
       d="m 7.4632118,0.97492632 -6.2567,0.0652 c 0,0 -0.70007001,6.36338 -0.13353,6.27562 0.56654,-0.0878 3.2894,-1.60909 5.45596,-0.80279 2.16657,0.8063 1.77947,3.5053197 1.40449,4.2541197 -0.37497,0.74879 -1.63947,2.82859 -4.92169,2.53745"
       id="path1107" />
    <path
       style="fill:none;stroke:#ff0f0f;stroke-width:0.264583;stroke-opacity:1"
       d="m 6.0206377,0.33076626 c 0,0 -4.84011,3.56394004 -4.77327,7.40504004 0.0668,3.8410897 0.30695,4.5881097 2.0729,5.4520197 1.76595,0.86391 3.98293,-0.0609 4.52419,-2.17348 0.54126,-2.1126297 -0.32879,-3.0187597 -2.05047,-3.6555197 -1.72168,-0.63675 -4.57108,0.53128 -4.57108,0.53128"
       id="path1109" />
    <path
       style="fill:none;stroke:#ff0f0f;stroke-width:0.264583;stroke-opacity:1"
       d="m 0.73038769,1.127148 c 0,0 7.06169001,-0.36621003 7.08807001,0.004 0.0264,0.37014 -1.72807,12.12743 -1.72807,12.12743"
       id="path1111" />
    <path
       style="fill:none;stroke:#ff0f0f;stroke-width:0.264583;stroke-opacity:1"
       d="m 4.0165802,5.9791801 c -0.22107,-0.0289 -2.76931,-1.28676 -2.81014,-2.88708 -0.0408,-1.60033 1.43105,-2.42598999 2.60673,-2.38807999 1.17568,0.0379 2.53567,0.62266999 2.56868,2.11106999 0.033,1.4884 -1.91036,2.92696 -2.72418,3.41999 -0.81382,0.49303 -3.27918,1.56865 -3.03737,3.66428 0.24181,2.0956299 1.58969,3.6604199 3.45979,3.5955299 1.87009,-0.0649 4.02024,-1.22183 3.85883,-3.5455199 -0.1614,-2.32368 -3.92234,-3.97019 -3.92234,-3.97019 z"
       id="path1113" />
    <path
       style="fill:none;stroke:#ff0f0f;stroke-width:0.264583;stroke-opacity:1"
       d="m 6.9566535,13.350749 c 0,0 1.28531,-8.5663596 0.208,-10.6277296 -1.07732,-2.06135997 -2.42765,-2.43531997 -3.1537,-2.37659997 -0.72605,0.0587 -3.19623999,0.72657997 -3.23373999,3.42392997 -0.0375,2.69735 2.36779999,2.69806 2.60883999,2.69538 0.24103,-0.003 3.99373,-0.082 3.99933,-2.4484"
       id="path1115" />
  </g>
</svg>
